<?xml version="1.0" encoding="iso-8859-1"?>
<!-- Generator: Adobe Illustrator 26.0.1, SVG Export Plug-In . SVG Version: 6.00 Build 0)  -->
<svg version="1.1" id="Layer_1" xmlns="http://www.w3.org/2000/svg" xmlns:xlink="http://www.w3.org/1999/xlink" x="0px" y="0px"
	 viewBox="0 0 550 600" style="enable-background:new 0 0 550 600;" xml:space="preserve">
<g style="opacity: 1">
	<g transform="matrix(1,0,0,1,0.484,350.394)">

			<path style="fill:none;stroke:#FFFFFF;stroke-width:19.6353;stroke-linecap:round;stroke-linejoin:round;stroke-miterlimit:5.6101;" d="
			M163.168-271.273l116.989,148.165l9.012,27.037l29.278-173.713c0.322-1.906,2.162-3.96,4.059-4.329l8.93-0.271l46.217,75.081
			l48.683-73.079c0.923-1.39,2.469-2.239,4.137-2.272l10.266,1.614l38.507,221.212l40.483,3.826c0.933,0.119,0.518,1.997,0.69,2.921
			l2.597,13.963L487.3,10.012c0,0,19.804,5.343,27.178,11.078c0,0,4.916,3.277-1.639,10.651c-6.554,7.374-36.049-2.458-40.146,7.374
			s-0.098,11.797,8.193,17.205c9.422,6.145,33.332,16.02,39.607,30.541c6.274,14.521-37.968,48.112-37.968,48.112l-46.097-0.848
			L392.108,76.9c-0.639-0.825-1.911-0.732-2.424,0.176l-25.14,66.908c-0.499,0.886-11.632,2.414-12.29,1.639l-58.172-70.239
			c-0.619-0.732-1.764-0.678-2.312,0.109l-38.241,54.973l-33.591,2.458l-40.965-31.953l-22.121,38.507l-43.423-2.458
			c0,0-41.784-15.567-43.423-18.025c-1.639-2.458-11.47-47.52-13.109-49.978s11.161-42.771,11.161-42.771L94.585,9.21L80.657-40.768
			l-2.458-181.885l50.797-30.314l32.128-18.694C161.807-272.059,162.678-271.893,163.168-271.273z"/>
	</g>
	<g transform="matrix(1,0,0,1,384.13,190.406)">

			<path style="fill:none;stroke:#FFFFFF;stroke-width:19.6353;stroke-linecap:round;stroke-linejoin:round;stroke-miterlimit:5.6101;" d="
			M93.845-116.573h-0.004l-44.021,0.062c-4.707,0.007-8.531,3.843-8.526,8.55l0.384,271.362c0.007,4.701,3.838,8.526,8.538,8.526
			l84.927-0.12c2.282-0.003,4.426-0.895,6.035-2.51c1.608-1.613,2.494-3.758,2.492-6.039l-0.061-42.838
			c-0.007-4.701-3.841-8.526-8.547-8.526l-26.569,0.038c-3.191,0-5.793-2.6-5.797-5.793l-0.303-214.185
			C102.385-112.749,98.551-116.573,93.845-116.573z M93.845-113.81c3.189,0,5.779,2.587,5.784,5.768l0.303,214.184
			c0.006,4.716,3.848,8.553,8.564,8.553l26.566-0.038c3.188,0,5.779,2.587,5.783,5.767l0.061,42.836
			c0.002,1.543-0.596,2.995-1.685,4.087c-1.089,1.093-2.539,1.695-4.082,1.698l-84.914,0.12h-0.009c-3.18,0-5.77-2.587-5.775-5.767
			l-0.384-271.362c-0.004-3.184,2.583-5.778,5.767-5.783L93.845-113.81"/>
	</g>
	<g transform="matrix(1,0,0,1,-10.14,190.998)">

			<path style="fill:none;stroke:#FFFFFF;stroke-width:19.6353;stroke-linecap:round;stroke-linejoin:round;stroke-miterlimit:5.6101;" d="
			M165.037-116.824h-0.011L62.71-116.679c-2.634,0.003-5.11,1.033-6.971,2.899c-1.861,1.866-2.883,4.345-2.879,6.98l0.38,268.772
			c0.008,5.431,4.433,9.85,9.864,9.85l43.616-0.061c2.635-0.004,5.11-1.034,6.971-2.899c1.861-1.866,2.883-4.345,2.88-6.98
			l-0.166-116.736c-0.002-1.159,0.448-2.249,1.266-3.07c0.818-0.82,1.907-1.273,3.067-1.275l39.889-0.057
			c2.635-0.004,5.111-1.033,6.971-2.899c1.861-1.866,2.883-4.345,2.88-6.98l-0.058-40.783c-0.007-5.432-4.432-9.85-9.864-9.85
			l-39.903,0.057c-2.395,0-4.341-1.943-4.345-4.332l-0.039-27.86c-0.002-1.158,0.448-2.249,1.267-3.069
			c0.818-0.821,1.907-1.273,3.066-1.276l44.398-0.063c5.416-0.007,9.835-4.419,9.85-9.835l0.053-40.788
			c0.007-2.636-1.015-5.12-2.88-6.989C170.158-115.794,167.677-116.824,165.037-116.824z M165.037-114.062
			c3.929,0,7.112,3.192,7.101,7.122l-0.052,40.784c-0.011,3.911-3.181,7.075-7.091,7.08l-44.399,0.063
			c-3.922,0.006-7.097,3.19-7.091,7.112l0.039,27.86c0.006,3.919,3.184,7.091,7.101,7.091h0.011l39.889-0.057h0.01
			c3.918,0,7.096,3.173,7.102,7.092l0.057,40.783c0.006,3.922-3.169,7.106-7.091,7.112l-39.889,0.057
			c-3.922,0.005-7.097,3.19-7.091,7.112l0.165,116.736c0.006,3.921-3.169,7.106-7.091,7.112l-43.601,0.061h-0.011
			c-3.917,0-7.096-3.172-7.102-7.091l-0.38-268.772c-0.006-3.922,3.169-7.106,7.091-7.112l102.313-0.145H165.037"/>
	</g>
	<g transform="matrix(1,0,0,1,113.202,190.76)">

			<path style="fill:none;stroke:#FFFFFF;stroke-width:19.6353;stroke-linecap:round;stroke-linejoin:round;stroke-miterlimit:5.6101;" d="
			M142.801-116.724h-0.004l-57.105,0.081c-3.792,0.005-7.165,2.557-8.2,6.205l-0.039,0.135l-0.025,0.138l-48.013,271.31
			c-0.682,2.556-0.149,5.243,1.47,7.362c1.629,2.133,4.102,3.356,6.785,3.356l40.669-0.057c3.916-0.006,7.318-2.669,8.273-6.478
			l12.08-45.475c0.656-2.617,2.968-4.422,5.629-4.426l16.948-0.024c2.666,0,4.975,1.785,5.61,4.342l0.014,0.058l0.017,0.057
			l13.401,45.432c0.971,3.78,4.366,6.413,8.278,6.413l41.908-0.06c2.676-0.003,5.144-1.224,6.769-3.35
			c1.613-2.108,2.151-4.783,1.479-7.347L151.09-110.223l-0.024-0.135l-0.037-0.133C150.001-114.161,146.617-116.724,142.801-116.724
			z M142.801-113.961c2.594,0,4.872,1.73,5.569,4.216l47.675,271.291l0.016,0.061c0.471,1.748,0.111,3.574-0.989,5.012
			c-1.1,1.437-2.769,2.263-4.579,2.265l-41.904,0.06c-2.665,0-4.971-1.802-5.613-4.381l-13.416-45.484
			c-0.936-3.768-4.354-6.439-8.295-6.439l-16.948,0.024c-3.929,0.006-7.339,2.671-8.295,6.48l-12.088,45.511
			c-0.65,2.587-2.949,4.384-5.598,4.387l-40.656,0.058H37.67c-1.815,0-3.488-0.827-4.59-2.27c-1.102-1.442-1.46-3.274-0.982-5.026
			l0.016-0.061l48.033-271.427c0.701-2.47,2.974-4.192,5.547-4.196L142.801-113.961"/>
	</g>
	<g transform="matrix(1,0,0,1,253.911,190.204)">

			<path style="fill:none;stroke:#FFFFFF;stroke-width:19.6353;stroke-linecap:round;stroke-linejoin:round;stroke-miterlimit:5.6101;" d="
			M117.375-116.537h-0.004l-44.021,0.062c-4.708,0.007-8.532,3.843-8.526,8.55l0.384,271.362c0.007,4.701,3.838,8.526,8.538,8.526
			l84.927-0.121c2.282-0.002,4.425-0.894,6.034-2.509c1.61-1.614,2.495-3.76,2.492-6.041l-0.061-42.837
			c-0.007-4.702-3.841-8.526-8.546-8.526l-26.57,0.038c-3.191,0-5.793-2.599-5.797-5.793l-0.303-214.184
			C125.915-112.712,122.08-116.537,117.375-116.537z M117.375-113.773c3.188,0,5.779,2.587,5.783,5.766l0.303,214.185
			c0.007,4.716,3.848,8.552,8.564,8.552l26.567-0.037c3.188,0,5.779,2.587,5.783,5.767l0.06,42.836
			c0.002,1.544-0.596,2.995-1.685,4.087c-1.089,1.092-2.538,1.694-4.082,1.697l-84.914,0.121h-0.009c-3.18,0-5.77-2.587-5.775-5.767
			l-0.384-271.362c-0.004-3.184,2.583-5.779,5.768-5.783L117.375-113.773"/>
	</g>
	<g transform="matrix(1,0,0,1,-60.576,357.708)">

			<path style="fill:none;stroke:#FFFFFF;stroke-width:19.6353;stroke-linecap:round;stroke-linejoin:round;stroke-miterlimit:5.6101;" d="
			M173.993,5.209h-0.048c-42.641,0.044-69.574,23.429-69.533,68.365c0.022,23.353,5.176,40.547,15.464,51.579
			c9.924,10.649,32.378,16.543,51.199,16.543c0.686,0,1.364-0.007,2.039-0.023c10.592-0.246,21.692-1.094,31.264-3.249
			c9.574-2.155,14.357-6.074,14.353-11.754l-0.052-59.183c-0.002-2.652-0.612-4.573-1.825-5.774
			c-1.213-1.194-3.153-1.793-5.824-1.793h-0.018l-39.886,0.039c-2.043,0.002-3.512,0.762-4.402,2.276
			c-0.892,1.517-1.336,3.916-1.334,7.198l0.009,12.604c0.003,3.284,0.451,5.679,1.347,7.194c0.892,1.511,2.359,2.267,4.398,2.267
			h0.009l15.045-0.015l0.018,14.529c-4.852,0.889-8.023,1.333-13.128,1.339h-0.044c-17.597,0-29.819-10.761-29.819-31.836
			c0-14.263,1.941-17.54,7.009-24.868c3.584-5.184,12.425-9.284,19.552-10.472c1.384-0.232,2.705-0.328,3.965-0.328
			c4.12,0,7.616,1.022,10.696,1.694c4.022,0.88,10.374,4.802,13.185,5.935c2.805,1.131,3.92,1.378,4.303,1.378h0.001
			c1.532-0.002,3.77-0.787,5.749-2.998c1.976-2.209,5.271-8.604,6.675-11.445c1.401-2.842,4.104-9.615,4.102-11.383
			c-0.002-2.524-3.321-6.01-8.386-8.524c-4.292-2.131-10.426-5.342-17.744-6.868C185.996,6.316,179.85,5.209,173.993,5.209z
			 M173.993,7.998c5.322,0.001,10.952,0.948,17.768,2.37c6.48,1.351,12.092,4.151,16.19,6.196l0.884,0.44
			c5.098,2.531,6.8,5.294,6.836,6.007c-0.11,1.272-2.27,7.035-3.814,10.167c-1.948,3.945-4.754,9.146-6.252,10.821
			c-1.311,1.465-2.715,2.023-3.567,2.066c-0.227-0.047-1.107-0.264-3.364-1.174c-0.837-0.338-2.202-1.046-3.647-1.795
			c-3.108-1.613-6.977-3.62-9.986-4.278c-0.536-0.117-1.085-0.245-1.648-0.376c-2.782-0.648-5.936-1.382-9.643-1.382
			c-1.485,0-2.974,0.122-4.424,0.365c-7.493,1.249-17.246,5.648-21.388,11.637c-5.337,7.719-7.503,11.449-7.503,26.454
			c0,10.823,3.152,19.739,9.115,25.78c5.711,5.787,13.835,8.845,23.494,8.845l0.047-0.001c5.193-0.005,8.532-0.451,13.628-1.384
			l2.29-0.419l-0.003-2.328l-0.019-14.528l-0.003-2.789l-2.789,0.002l-15.051,0.016c-1.467,0-1.811-0.583-1.997-0.899
			c-0.357-0.602-0.955-2.155-0.959-5.775l-0.009-12.605c-0.003-3.621,0.592-5.176,0.95-5.781c0.184-0.315,0.528-0.9,2-0.901
			l39.901-0.037c1.87,0,3.208,0.343,3.862,0.986c0.651,0.644,0.995,1.955,0.997,3.793l0.052,59.183
			c0.002,1.555,0.006,6.288-12.175,9.03c-8.228,1.852-18.275,2.893-30.717,3.181c-0.654,0.016-1.31,0.023-1.975,0.023
			c-17.178,0-39.581-5.378-49.159-15.656c-9.743-10.449-14.693-27.163-14.714-49.68c-0.02-21.199,6.001-37.683,17.894-48.994
			c11.381-10.825,28.275-16.558,48.854-16.58H173.993"/>
	</g>
	<g transform="matrix(1,0,0,1,148.561,357.864)">

			<path style="fill:none;stroke:#FFFFFF;stroke-width:19.6353;stroke-linecap:round;stroke-linejoin:round;stroke-miterlimit:5.6101;" d="
			M136.411,6.596h-0.043l-16.522,0.01c-7.52,0.007-11.278,2.002-11.274,5.982l0.079,71.814c0.007,6.595-1.692,12.752-6.512,16.985
			c-4.822,4.235-9.671,4.455-13.904,4.459h-0.02c-3.581,0-9.039-0.959-13.797-5.176c-4.768-4.224-6.441-9.633-6.448-16.228
			L67.891,12.63c-0.003-3.971-3.752-5.96-11.242-5.96h-0.043l-16.71,0.011c-7.52,0.007-11.278,2.002-11.274,5.982l0.082,83.158
			c0.014,14.308,6.921,26.149,16.455,34.038c9.51,7.874,25.735,11.81,42.989,11.81h0.115c17.297-0.017,33.563-3.977,43.082-11.888
			c9.517-7.909,16.407-19.76,16.393-34.067l-0.082-83.159C147.651,8.584,143.902,6.596,136.411,6.596z M136.411,9.385
			c4.069,0,6.119,0.634,7.122,1.166c1.107,0.587,1.33,1.204,1.331,2.007l0.082,83.158c0.012,12.328-5.452,23.664-15.386,31.918
			c-8.577,7.129-23.631,11.227-41.302,11.245h-0.112c-17.617,0-32.637-4.072-41.21-11.171c-9.948-8.23-15.432-19.556-15.444-31.891
			L31.41,12.66c-0.001-0.806,0.222-1.424,1.334-2.015c1.007-0.533,3.065-1.172,7.153-1.176l16.709-0.01h0.042
			c4.069,0,6.119,0.634,7.122,1.165c1.107,0.587,1.33,1.204,1.331,2.008l0.079,71.813c0.007,8.036,2.355,13.855,7.387,18.311
			c5.769,5.114,12.279,5.879,15.671,5.879c3.697-0.004,9.886-0.011,15.741-5.153c4.958-4.355,7.468-10.775,7.461-19.084
			l-0.079-71.812c-0.001-0.806,0.222-1.425,1.334-2.014c1.007-0.535,3.065-1.172,7.153-1.177l16.525-0.01H136.411"/>
	</g>
	<g transform="matrix(1,0,0,1,319.868,357.092)">

			<path style="fill:none;stroke:#FFFFFF;stroke-width:19.6353;stroke-linecap:round;stroke-linejoin:round;stroke-miterlimit:5.6101;" d="
			M105.457,7.332h-0.078L86.166,7.341c-6.132,0.007-9.885,1.184-11.259,3.527L54.69,42.267L34.585,10.919
			c-1.377-2.334-5.117-3.504-11.216-3.504h-0.05L2.792,7.424C-5.217,7.432-9.22,8.672-9.217,11.138
			c0.001,0.988,0.629,2.528,1.881,4.623l39.462,59.357l0.061,60.781c0.004,3.941,3.746,5.909,11.224,5.909h0.043l21.519-0.009
			c7.508-0.008,11.261-1.984,11.257-5.933L76.17,75.64l39.354-59.992c1.124-1.851,1.687-3.393,1.685-4.627
			C117.206,8.563,113.288,7.332,105.457,7.332z M105.457,10.121c6.392,0,8.4,0.861,8.937,1.195
			c-0.073,0.471-0.338,1.368-1.231,2.845l-39.326,59.95l-0.457,0.697l0.001,0.835l0.06,60.226c0.001,0.788-0.22,1.393-1.322,1.974
			c-1.006,0.529-3.063,1.163-7.147,1.167l-21.518,0.009h-0.043c-4.067,0-6.114-0.628-7.116-1.155
			c-1.097-0.578-1.317-1.181-1.317-1.967l-0.062-60.781l-0.001-0.841l-0.465-0.701L-4.976,14.275
			c-0.941-1.583-1.272-2.455-1.389-2.858c0.604-0.355,2.717-1.197,9.158-1.204l20.529-0.009h0.046c7.011,0,8.518,1.632,8.813,2.132
			l0.027,0.045l0.028,0.043l20.105,31.347l2.343,3.654l2.35-3.65l20.217-31.399l0.031-0.048l0.029-0.05
			c0.295-0.502,1.805-2.142,8.855-2.15l19.218-0.008H105.457"/>
	</g>
	<g transform="matrix(1,0,0,1,391.472,356.586)">

			<path style="fill:none;stroke:#FFFFFF;stroke-width:19.6353;stroke-linecap:round;stroke-linejoin:round;stroke-miterlimit:5.6101;" d="
			M92.518,7.489h-0.093c-7.872,0.008-15.357,1.39-22.25,4.108c-7.158,2.826-13.042,7.291-17.49,13.272
			c-4.527,6.086-6.817,13.677-6.808,22.566c0.01,10.593,2.507,19.001,7.423,24.991c4.673,5.695,11.116,10.494,19.151,14.265
			l8.296,3.557l0.111,0.045c6.359,2.53,10.951,4.789,13.643,6.714c1.814,1.299,2.624,2.89,2.627,5.161
			c0.003,3.698-1.349,4.927-2.528,5.585c-2.532,1.414-5.734,2.132-9.52,2.136h-0.044c-3.585,0-6.699-0.442-9.261-1.315
			c-2.859-0.975-6.108-2.355-9.654-4.101c-4.065-2.179-5.68-2.609-7.085-2.609h-0.007c-3.37,0.003-6.053,2.423-7.779,4.244
			c-2.049,2.165-3.839,4.682-5.316,7.479c-1.663,3.137-2.469,5.89-2.467,8.413c0.003,3.788,2.33,7.272,6.916,10.357
			c4.046,2.908,9.343,5.185,16.189,6.963c6.583,1.711,14.325,2.578,23.011,2.578h0.133c7.564-0.007,14.731-1.435,21.305-4.243
			c6.822-2.915,12.472-7.66,16.792-14.105c4.323-6.454,6.51-14.72,6.501-24.572c-0.007-8.211-1.846-15.142-5.466-20.597
			c-3.503-5.279-7.734-9.401-12.574-12.253c-4.421-2.601-10.159-5.371-17.004-8.209c-4.481-1.925-7.896-3.492-10.158-4.663
			c-1.834-0.947-3.343-2.148-4.617-3.676c-0.964-1.151-1.432-2.667-1.434-4.634c-0.001-0.737,0.202-1.883,1.967-3.332
			c0.708-0.582,3.089-1.933,9.906-1.94h0.04c4.046,0,7.987,0.616,11.714,1.829c0.848,0.316,1.911,0.748,3.154,1.277
			c2.008,0.865,3.476,1.251,4.757,1.251h0.007c2.716-0.003,5.331-1.465,7.772-4.346c1.815-2.143,3.361-4.674,4.594-7.522
			c1.319-3.05,1.959-5.642,1.956-7.917c-0.002-3.391-1.953-6.509-5.847-9.302c-3.335-2.327-7.631-4.125-13.138-5.497
			C104.719,8.148,98.856,7.489,92.518,7.489z M92.518,10.278c6.112,0,11.748,0.632,16.75,1.875
			c5.171,1.289,9.167,2.949,12.186,5.057c3.106,2.229,4.682,4.597,4.685,7.039c0.002,1.888-0.564,4.115-1.728,6.807
			c-1.123,2.596-2.523,4.892-4.161,6.827c-1.888,2.226-3.787,3.357-5.651,3.358c-0.872,0-2.034-0.324-3.663-1.027
			c-1.285-0.548-2.386-0.994-3.271-1.324l-0.056-0.021l-0.057-0.019c-4.008-1.304-8.24-1.965-12.577-1.965h-0.043
			c-7.069,0.007-10.249,1.404-11.673,2.573c-2.012,1.651-2.989,3.448-2.987,5.49c0.002,2.61,0.704,4.772,2.081,6.418
			c1.513,1.816,3.306,3.246,5.476,4.368c2.316,1.199,5.795,2.796,10.372,4.762c6.74,2.795,12.344,5.499,16.656,8.037
			c4.473,2.636,8.399,6.468,11.665,11.391c3.311,4.991,4.994,11.403,5,19.059c0.008,9.287-2.02,17.03-6.028,23.016
			c-4.014,5.988-9.252,10.393-15.571,13.092c-6.226,2.66-13.027,4.013-20.211,4.02h-0.13c-8.449,0-15.955-0.837-22.31-2.488
			c-6.509-1.69-11.502-3.826-15.263-6.528l-0.035-0.025l-0.035-0.024c-3.77-2.536-5.682-5.242-5.684-8.046
			c-0.002-2.057,0.699-4.381,2.143-7.107c1.362-2.574,3.001-4.884,4.876-6.862c1.371-1.448,3.46-3.371,5.761-3.373
			c0.789,0,2.033,0.275,5.767,2.277l0.085,0.044c3.657,1.801,7.018,3.226,9.987,4.238c2.852,0.972,6.27,1.465,10.16,1.465h0.047
			c4.268-0.005,7.928-0.843,10.876-2.49c2.668-1.489,3.963-4.114,3.959-8.025c-0.003-3.172-1.243-5.601-3.793-7.427
			c-2.877-2.056-7.666-4.423-14.202-7.023l-0.075-0.03l-8.253-3.539c-7.636-3.589-13.738-8.127-18.138-13.489
			c-4.496-5.479-6.781-13.292-6.79-23.224c-0.007-8.275,2.097-15.306,6.257-20.9c4.133-5.557,9.609-9.71,16.275-12.34
			c6.567-2.59,13.709-3.906,21.231-3.915H92.518"/>
	</g>
</g>
<g>
    	<g transform="matrix(0,474.561,474.561,0,157.899,-164.5275)">

			<linearGradient id="SVGID_1_" gradientUnits="userSpaceOnUse" x1="2.0049" y1="-0.7789" x2="2.5891" y2="-0.7789" gradientTransform="matrix(1.4025 0 0 -1.4025 -1.2697 -1403.6185)">
			<stop  offset="0" style="stop-color:#257EA5"/>
				<stop  offset="0.23" style="stop-color:#257EA5"/>
				<stop  offset="0.94" style="stop-color:#B5097A"/>
				<stop  offset="1" style="stop-color:#B5097A"/>
		</linearGradient>
			<path style="fill:url(#SVGID_1_);" d="M0.509,0.567l0.154-0.102L0.504,0.367l0.001-0.019C0.506,0.344,0.51,0.34,0.514,0.34
			L0.88,0.277L0.823,0.258L0.511,0.012C0.51,0.011,0.509,0.009,0.51,0.008L0.549-0.06l0.064-0.107l0.383,0.005l0.106,0.029
			l0.035-0.056c0,0,0.085-0.027,0.091-0.024c0.005,0.003,0.1,0.024,0.105,0.028c0.005,0.003,0.038,0.091,0.038,0.091l0.006,0.092
			L1.296,0.045l0.067,0.086L1.358,0.203l-0.116,0.08c-0.002,0.001-0.002,0.003,0,0.005L1.39,0.411
			c0.002,0.001-0.002,0.025-0.004,0.025L1.245,0.49c-0.002,0.001-0.002,0.003,0,0.005l0.12,0.093l0.002,0.097
			c0,0-0.07,0.093-0.102,0.079c-0.03-0.013-0.051-0.063-0.064-0.084C1.19,0.664,1.186,0.656,1.166,0.664
			c-0.011,0.005-0.011,0.025-0.01,0.044C1.157,0.725,1.157,0.743,1.15,0.749C1.134,0.762,1.127,0.753,1.127,0.753
			C1.115,0.737,1.104,0.695,1.104,0.695L1.017,0.771L0.988,0.765c-0.002,0-0.006,0.001-0.006-0.002L0.974,0.678L0.508,0.597
			L0.504,0.576C0.504,0.571,0.506,0.569,0.509,0.567z"/>
	</g>
	<g transform="matrix(1,0,0,1,330.88,-161.9641)">
		<path style="fill:#30D8DE;" d="M103.467,520.989c-3.941,0-7.152-3.206-7.157-7.147L95.925,242.48
			c-0.005-3.946,3.201-7.161,7.147-7.166l44.022-0.062c3.947,0,7.161,3.206,7.167,7.147l0.303,214.184
			c0.005,3.956,3.228,7.173,7.183,7.173l26.564-0.038c3.947,0,7.161,3.206,7.167,7.146l0.061,42.837
			c0.002,1.912-0.74,3.711-2.089,5.063c-1.349,1.354-3.145,2.102-5.058,2.105l-84.915,0.12H103.467z"/>
	</g>
	<g transform="matrix(1,0,0,1,384.13,190.406)">
		<path style="fill:#08AFBB;" d="M93.845-116.573h-0.004l-44.021,0.062c-4.707,0.007-8.531,3.843-8.526,8.55l0.384,271.362
			c0.007,4.701,3.838,8.526,8.538,8.526l84.927-0.12c2.282-0.003,4.426-0.895,6.035-2.51c1.608-1.613,2.494-3.758,2.492-6.039
			l-0.061-42.838c-0.007-4.701-3.841-8.526-8.547-8.526l-26.569,0.038c-3.191,0-5.793-2.6-5.797-5.793l-0.303-214.185
			C102.385-112.749,98.551-116.573,93.845-116.573 M93.845-113.81c3.189,0,5.779,2.587,5.784,5.768l0.303,214.184
			c0.006,4.716,3.848,8.553,8.564,8.553l26.566-0.038c3.188,0,5.779,2.587,5.783,5.767l0.061,42.836
			c0.002,1.543-0.596,2.995-1.685,4.087c-1.089,1.093-2.539,1.695-4.082,1.698l-84.914,0.12h-0.009c-3.18,0-5.77-2.587-5.775-5.767
			l-0.384-271.362c-0.004-3.184,2.583-5.778,5.767-5.783L93.845-113.81"/>
	</g>
	<g transform="matrix(1,0,0,1,-135.7262,-160.3799)">
		<path style="fill:#30D8DE;" d="M187.519,521.058c-4.671,0-8.477-3.801-8.483-8.472l-0.38-268.771
			c-0.003-2.265,0.876-4.397,2.476-6.001c1.6-1.605,3.729-2.49,5.995-2.493l102.313-0.145c2.283,0,4.415,0.885,6.019,2.492
			c1.603,1.608,2.482,3.744,2.477,6.015l-0.053,40.782c-0.013,4.66-3.814,8.454-8.472,8.46l-44.398,0.063
			c-1.527,0.002-2.963,0.599-4.042,1.681c-1.078,1.081-1.671,2.519-1.669,4.047l0.039,27.86c0.004,3.149,2.57,5.712,5.72,5.712
			l39.898-0.057c4.682,0,8.487,3.8,8.495,8.471l0.057,40.783c0.007,4.677-3.793,8.488-8.472,8.495l-39.888,0.057
			c-1.527,0.002-2.963,0.599-4.042,1.681c-1.078,1.081-1.671,2.519-1.669,4.047l0.165,116.736c0.006,4.677-3.795,8.488-8.472,8.495
			L187.519,521.058z"/>
	</g>
	<g transform="matrix(1,0,0,1,-10.14,190.998)">
		<path style="fill:#08AFBB;" d="M165.037-116.824h-0.011L62.71-116.679c-2.634,0.003-5.11,1.033-6.971,2.899
			c-1.861,1.866-2.883,4.345-2.879,6.98l0.38,268.772c0.008,5.431,4.433,9.85,9.864,9.85l43.616-0.061
			c2.635-0.004,5.11-1.034,6.971-2.899c1.861-1.866,2.883-4.345,2.88-6.98l-0.166-116.736c-0.002-1.159,0.448-2.249,1.266-3.07
			c0.818-0.82,1.907-1.273,3.067-1.275l39.889-0.057c2.635-0.004,5.111-1.033,6.971-2.899c1.861-1.866,2.883-4.345,2.88-6.98
			l-0.058-40.783c-0.007-5.432-4.432-9.85-9.864-9.85l-39.903,0.057c-2.395,0-4.341-1.943-4.345-4.332l-0.039-27.86
			c-0.002-1.158,0.448-2.249,1.267-3.069c0.818-0.821,1.907-1.273,3.066-1.276l44.398-0.063c5.416-0.007,9.835-4.419,9.85-9.835
			l0.053-40.788c0.007-2.636-1.015-5.12-2.88-6.989C170.158-115.794,167.677-116.824,165.037-116.824 M165.037-114.062
			c3.929,0,7.112,3.192,7.101,7.122l-0.052,40.784c-0.011,3.911-3.181,7.075-7.091,7.08l-44.399,0.063
			c-3.922,0.006-7.097,3.19-7.091,7.112l0.039,27.86c0.006,3.919,3.184,7.091,7.101,7.091h0.011l39.889-0.057h0.01
			c3.918,0,7.096,3.173,7.102,7.092l0.057,40.783c0.006,3.922-3.169,7.106-7.091,7.112l-39.889,0.057
			c-3.922,0.005-7.097,3.19-7.091,7.112l0.165,116.736c0.006,3.921-3.169,7.106-7.091,7.112l-43.601,0.061h-0.011
			c-3.917,0-7.096-3.172-7.102-7.091l-0.38-268.772c-0.006-3.922,3.169-7.106,7.091-7.112l102.313-0.145H165.037"/>
	</g>
	<g transform="matrix(1,0,0,1,-16.885,-160.2116)">
		<path style="fill:#30D8DE;" d="M165.987,521.031c-2.25,0-4.323-1.026-5.688-2.813c-1.365-1.787-1.809-4.057-1.217-6.227
			l48.035-271.435l0.02-0.067c0.868-3.058,3.694-5.197,6.874-5.201l57.105-0.081c3.202,0,6.039,2.148,6.9,5.224l0.02,0.066
			l47.677,271.303c0.574,2.212,0.122,4.446-1.226,6.207c-1.362,1.781-3.43,2.805-5.674,2.808l-41.904,0.061
			c-3.301,0-6.16-2.233-6.955-5.43l-13.401-45.427c-0.804-3.231-3.665-5.448-6.971-5.448l-16.946,0.025
			c-3.294,0.005-6.155,2.24-6.958,5.434l-12.092,45.53c-0.798,3.176-3.65,5.41-6.931,5.416l-40.657,0.057H165.987z"/>
	</g>
	<g transform="matrix(1,0,0,1,113.202,190.76)">
		<path style="fill:#08AFBB;" d="M142.801-116.724h-0.004l-57.105,0.081c-3.792,0.005-7.165,2.557-8.2,6.205l-0.039,0.135
			l-0.025,0.138l-48.013,271.31c-0.682,2.556-0.149,5.243,1.47,7.362c1.629,2.133,4.102,3.356,6.785,3.356l40.669-0.057
			c3.916-0.006,7.318-2.669,8.273-6.478l12.08-45.475c0.656-2.617,2.968-4.422,5.629-4.426l16.948-0.024
			c2.666,0,4.975,1.785,5.61,4.342l0.014,0.058l0.017,0.057l13.401,45.432c0.971,3.78,4.366,6.413,8.278,6.413l41.908-0.06
			c2.676-0.003,5.144-1.224,6.769-3.35c1.613-2.108,2.151-4.783,1.479-7.347L151.09-110.223l-0.024-0.135l-0.037-0.133
			C150.001-114.161,146.617-116.724,142.801-116.724 M142.801-113.961c2.594,0,4.872,1.73,5.569,4.216l47.675,271.291l0.016,0.061
			c0.471,1.748,0.111,3.574-0.989,5.012c-1.1,1.437-2.769,2.263-4.579,2.265l-41.904,0.06c-2.665,0-4.971-1.802-5.613-4.381
			l-13.416-45.484c-0.936-3.768-4.354-6.439-8.295-6.439l-16.948,0.024c-3.929,0.006-7.339,2.671-8.295,6.48l-12.088,45.511
			c-0.65,2.587-2.949,4.384-5.598,4.387l-40.656,0.058H37.67c-1.815,0-3.488-0.827-4.59-2.27c-1.102-1.442-1.46-3.274-0.982-5.026
			l0.016-0.061l48.033-271.427c0.701-2.47,2.974-4.192,5.547-4.196L142.801-113.961"/>
	</g>
	<g transform="matrix(1,0,0,1,200.66,-161.761)">
		<path style="fill:#30D8DE;" d="M126.997,521.026c-3.941,0-7.151-3.206-7.157-7.147l-0.385-271.362
			c-0.005-3.946,3.201-7.161,7.147-7.166l44.022-0.062c3.947,0,7.161,3.206,7.167,7.147l0.303,214.184
			c0.005,3.956,3.228,7.173,7.183,7.173l26.565-0.038c3.946,0,7.16,3.206,7.166,7.146l0.061,42.837
			c0.002,1.912-0.74,3.711-2.089,5.064c-1.349,1.354-3.146,2.101-5.058,2.104l-84.916,0.12H126.997z"/>
	</g>
	<g transform="matrix(1,0,0,1,253.911,190.204)">
		<path style="fill:#08AFBB;" d="M117.375-116.537h-0.004l-44.021,0.062c-4.708,0.007-8.532,3.843-8.526,8.55l0.384,271.362
			c0.007,4.701,3.838,8.526,8.538,8.526l84.927-0.121c2.282-0.002,4.425-0.894,6.034-2.509c1.61-1.614,2.495-3.76,2.492-6.041
			l-0.061-42.837c-0.007-4.702-3.841-8.526-8.546-8.526l-26.57,0.038c-3.191,0-5.793-2.599-5.797-5.793l-0.303-214.184
			C125.915-112.712,122.08-116.537,117.375-116.537 M117.375-113.773c3.188,0,5.779,2.587,5.783,5.766l0.303,214.185
			c0.007,4.716,3.848,8.552,8.564,8.552l26.567-0.037c3.188,0,5.779,2.587,5.783,5.767l0.06,42.836
			c0.002,1.544-0.596,2.995-1.685,4.087c-1.089,1.092-2.538,1.694-4.082,1.697l-84.914,0.121h-0.009c-3.18,0-5.77-2.587-5.775-5.767
			l-0.384-271.362c-0.004-3.184,2.583-5.779,5.768-5.783L117.375-113.773"/>
	</g>
	<g transform="matrix(1,0,0,1,-63.016,192.819)">
		<path style="fill:#F73CA3;" d="M174.637,305.19c-24.169,0-42.954-8.346-50.181-16.099c-9.991-10.715-15.068-27.749-15.089-50.63
			c-0.039-42.516,24.798-66.926,68.141-66.97c5.488,0,11.198,0.959,18.1,2.399c6.656,1.39,12.362,4.236,16.528,6.314l0.881,0.438
			c4.942,2.455,7.61,5.58,7.611,7.276c0.001,1.292-2.359,7.52-3.959,10.765c-2.082,4.215-4.873,9.355-6.463,11.133
			c-1.67,1.866-3.528,2.532-4.71,2.534c-0.014-0.002-0.76-0.06-3.781-1.279c-0.9-0.362-2.23-1.052-3.77-1.852
			c-3.035-1.574-6.812-3.533-9.638-4.151c-0.542-0.119-1.097-0.247-1.666-0.38c-2.709-0.631-5.781-1.346-9.329-1.346
			c-1.408,0-2.818,0.116-4.192,0.345c-7.205,1.203-16.55,5.386-20.471,11.057c-5.162,7.465-7.256,11.075-7.256,25.661
			c0,10.449,3.013,19.025,8.713,24.8c5.443,5.516,13.224,8.431,22.501,8.43c5.134-0.005,8.413-0.443,13.423-1.362l1.145-0.211
			l-0.022-17.086l-16.439,0.016c-2.036,0-2.804-0.903-3.204-1.581c-0.762-1.29-1.15-3.473-1.154-6.487l-0.008-12.603
			c-0.003-3.015,0.381-5.198,1.14-6.488c0.401-0.682,1.168-1.588,3.202-1.59l39.885-0.038c2.294,0,3.924,0.469,4.864,1.393
			c0.931,0.921,1.405,2.53,1.408,4.78l0.052,59.184c0.004,4.982-4.334,8.382-13.264,10.391c-8.318,1.871-18.455,2.923-30.991,3.215
			C175.979,305.182,175.31,305.19,174.637,305.19"/>
	</g>
	<g transform="matrix(1,0,0,1,-60.576,357.708)">
		<path style="fill:#E81A87;" d="M173.993,5.209h-0.048c-42.641,0.044-69.574,23.429-69.533,68.365
			c0.022,23.353,5.176,40.547,15.464,51.579c9.924,10.649,32.378,16.543,51.199,16.543c0.686,0,1.364-0.007,2.039-0.023
			c10.592-0.246,21.692-1.094,31.264-3.249c9.574-2.155,14.357-6.074,14.353-11.754l-0.052-59.183
			c-0.002-2.652-0.612-4.573-1.825-5.774c-1.213-1.194-3.153-1.793-5.824-1.793h-0.018l-39.886,0.039
			c-2.043,0.002-3.512,0.762-4.402,2.276c-0.892,1.517-1.336,3.916-1.334,7.198l0.009,12.604c0.003,3.284,0.451,5.679,1.347,7.194
			c0.892,1.511,2.359,2.267,4.398,2.267h0.009l15.045-0.015l0.018,14.529c-4.852,0.889-8.023,1.333-13.128,1.339h-0.044
			c-17.597,0-29.819-10.761-29.819-31.836c0-14.263,1.941-17.54,7.009-24.868c3.584-5.184,12.425-9.284,19.552-10.472
			c1.384-0.232,2.705-0.328,3.965-0.328c4.12,0,7.616,1.022,10.696,1.694c4.022,0.88,10.374,4.802,13.185,5.935
			c2.805,1.131,3.92,1.378,4.303,1.378h0.001c1.532-0.002,3.77-0.787,5.749-2.998c1.976-2.209,5.271-8.604,6.675-11.445
			c1.401-2.842,4.104-9.615,4.102-11.383c-0.002-2.524-3.321-6.01-8.386-8.524c-4.292-2.131-10.426-5.342-17.744-6.868
			C185.996,6.316,179.85,5.209,173.993,5.209 M173.993,7.998c5.322,0.001,10.952,0.948,17.768,2.37
			c6.48,1.351,12.092,4.151,16.19,6.196l0.884,0.44c5.098,2.531,6.8,5.294,6.836,6.007c-0.11,1.272-2.27,7.035-3.814,10.167
			c-1.948,3.945-4.754,9.146-6.252,10.821c-1.311,1.465-2.715,2.023-3.567,2.066c-0.227-0.047-1.107-0.264-3.364-1.174
			c-0.837-0.338-2.202-1.046-3.647-1.795c-3.108-1.613-6.977-3.62-9.986-4.278c-0.536-0.117-1.085-0.245-1.648-0.376
			c-2.782-0.648-5.936-1.382-9.643-1.382c-1.485,0-2.974,0.122-4.424,0.365c-7.493,1.249-17.246,5.648-21.388,11.637
			c-5.337,7.719-7.503,11.449-7.503,26.454c0,10.823,3.152,19.739,9.115,25.78c5.711,5.787,13.835,8.845,23.494,8.845l0.047-0.001
			c5.193-0.005,8.532-0.451,13.628-1.384l2.29-0.419l-0.003-2.328l-0.019-14.528l-0.003-2.789l-2.789,0.002l-15.051,0.016
			c-1.467,0-1.811-0.583-1.997-0.899c-0.357-0.602-0.955-2.155-0.959-5.775l-0.009-12.605c-0.003-3.621,0.592-5.176,0.95-5.781
			c0.184-0.315,0.528-0.9,2-0.901l39.901-0.037c1.87,0,3.208,0.343,3.862,0.986c0.651,0.644,0.995,1.955,0.997,3.793l0.052,59.183
			c0.002,1.555,0.006,6.288-12.175,9.03c-8.228,1.852-18.275,2.893-30.717,3.181c-0.654,0.016-1.31,0.023-1.975,0.023
			c-17.178,0-39.581-5.378-49.159-15.656c-9.743-10.449-14.693-27.163-14.714-49.68c-0.02-21.199,6.001-37.683,17.894-48.994
			c11.381-10.825,28.275-16.558,48.854-16.58H173.993"/>
	</g>
	<g transform="matrix(1,0,0,1,89.65,194.703)">
		<path style="fill:#F73CA3;" d="M147.056,303.435c-17.936,0-33.28-4.188-42.098-11.491c-10.273-8.499-15.938-20.206-15.95-32.965
			l-0.082-83.158c-0.001-1.131-0.004-4.577,9.882-4.586l16.709-0.01c9.886,0,9.889,3.437,9.891,4.567l0.079,71.812
			c0.007,7.609,2.205,13.097,6.917,17.271c5.425,4.809,11.554,5.526,14.725,5.526c4.757-0.005,9.804-0.381,14.842-4.806
			c4.643-4.078,6.994-10.145,6.985-18.035l-0.079-71.814c-0.001-1.131-0.004-4.577,9.881-4.586l16.522-0.011
			c9.886,0,9.889,3.437,9.891,4.567l0.082,83.158c0.011,12.751-5.631,24.469-15.89,32.993c-8.823,7.333-24.201,11.549-42.193,11.567
			H147.056z"/>
	</g>
	<g transform="matrix(1,0,0,1,148.561,357.864)">
		<path style="fill:#E81A87;" d="M136.411,6.596h-0.043l-16.522,0.01c-7.52,0.007-11.278,2.002-11.274,5.982l0.079,71.814
			c0.007,6.595-1.692,12.752-6.512,16.985c-4.822,4.235-9.671,4.455-13.904,4.459h-0.02c-3.581,0-9.039-0.959-13.797-5.176
			c-4.768-4.224-6.441-9.633-6.448-16.228L67.891,12.63c-0.003-3.971-3.752-5.96-11.242-5.96h-0.043l-16.71,0.011
			c-7.52,0.007-11.278,2.002-11.274,5.982l0.082,83.158c0.014,14.308,6.921,26.149,16.455,34.038
			c9.51,7.874,25.735,11.81,42.989,11.81h0.115c17.297-0.017,33.563-3.977,43.082-11.888c9.517-7.909,16.407-19.76,16.393-34.067
			l-0.082-83.159C147.651,8.584,143.902,6.596,136.411,6.596 M136.411,9.385c4.069,0,6.119,0.634,7.122,1.166
			c1.107,0.587,1.33,1.204,1.331,2.007l0.082,83.158c0.012,12.328-5.452,23.664-15.386,31.918
			c-8.577,7.129-23.631,11.227-41.302,11.245h-0.112c-17.617,0-32.637-4.072-41.21-11.171c-9.948-8.23-15.432-19.556-15.444-31.891
			L31.41,12.66c-0.001-0.806,0.222-1.424,1.334-2.015c1.007-0.533,3.065-1.172,7.153-1.176l16.709-0.01h0.042
			c4.069,0,6.119,0.634,7.122,1.165c1.107,0.587,1.33,1.204,1.331,2.008l0.079,71.813c0.007,8.036,2.355,13.855,7.387,18.311
			c5.769,5.114,12.279,5.879,15.671,5.879c3.697-0.004,9.886-0.011,15.741-5.153c4.958-4.355,7.468-10.775,7.461-19.084
			l-0.079-71.812c-0.001-0.806,0.222-1.425,1.334-2.014c1.007-0.535,3.065-1.172,7.153-1.177l16.525-0.01H136.411"/>
	</g>
	<g transform="matrix(1,0,0,1,244.136,194.661)">
		<path style="fill:#F73CA3;" d="M119.141,302.845c-9.823-0.001-9.827-3.399-9.828-4.517l-0.061-61.2l-39.695-59.707
			c-1.482-2.486-1.647-3.525-1.648-3.853c0-0.236,0.297-2.306,10.617-2.317l20.525-0.01c6.953,0,9.306,1.533,10.064,2.819
			l21.304,33.218l21.392-33.224c0.787-1.34,3.147-2.881,10.088-2.888l19.212-0.007c10.142,0,10.434,2.06,10.435,2.295
			c0,0.666-0.256,1.884-1.483,3.902l-39.557,60.3l0.061,60.643c0.002,3.004-3.315,4.529-9.864,4.536L119.141,302.845z"/>
	</g>
	<g transform="matrix(1,0,0,1,319.868,357.092)">
		<path style="fill:#E81A87;" d="M105.457,7.332h-0.078L86.166,7.341c-6.132,0.007-9.885,1.184-11.259,3.527L54.69,42.267
			L34.585,10.919c-1.377-2.334-5.117-3.504-11.216-3.504h-0.05L2.792,7.424C-5.217,7.432-9.22,8.672-9.217,11.138
			c0.001,0.988,0.629,2.528,1.881,4.623l39.462,59.357l0.061,60.781c0.004,3.941,3.746,5.909,11.224,5.909h0.043l21.519-0.009
			c7.508-0.008,11.261-1.984,11.257-5.933L76.17,75.64l39.354-59.992c1.124-1.851,1.687-3.393,1.685-4.627
			C117.206,8.563,113.288,7.332,105.457,7.332 M105.457,10.121c6.392,0,8.4,0.861,8.937,1.195c-0.073,0.471-0.338,1.368-1.231,2.845
			l-39.326,59.95l-0.457,0.697l0.001,0.835l0.06,60.226c0.001,0.788-0.22,1.393-1.322,1.974c-1.006,0.529-3.063,1.163-7.147,1.167
			l-21.518,0.009h-0.043c-4.067,0-6.114-0.628-7.116-1.155c-1.097-0.578-1.317-1.181-1.317-1.967l-0.062-60.781l-0.001-0.841
			l-0.465-0.701L-4.976,14.275c-0.941-1.583-1.272-2.455-1.389-2.858c0.604-0.355,2.717-1.197,9.158-1.204l20.529-0.009h0.046
			c7.011,0,8.518,1.632,8.813,2.132l0.027,0.045l0.028,0.043l20.105,31.347l2.343,3.654l2.35-3.65l20.217-31.399l0.031-0.048
			l0.029-0.05c0.295-0.502,1.805-2.142,8.855-2.15l19.218-0.008H105.457"/>
	</g>
	<g transform="matrix(1,0,0,1,387.891,194.233)">
		<path style="fill:#F73CA3;" d="M93.165,302.857c-8.569,0-16.194-0.852-22.662-2.533c-6.677-1.734-11.822-3.94-15.727-6.746
			c-4.212-2.834-6.332-5.929-6.336-9.226c-0.002-2.291,0.752-4.828,2.305-7.759c1.421-2.688,3.136-5.101,5.098-7.172
			c1.548-1.634,3.933-3.805,6.768-3.808c1.159,0,2.637,0.409,6.431,2.442c3.649,1.798,6.953,3.201,9.864,4.192
			c2.706,0.923,5.976,1.39,9.715,1.39c4.066-0.004,7.497-0.782,10.239-2.313c2.216-1.238,3.247-3.4,3.243-6.806
			c-0.002-2.727-1.022-4.726-3.208-6.292c-2.786-1.992-7.477-4.305-13.94-6.876l-8.372-3.589
			c-7.803-3.662-14.083-8.334-18.623-13.868c-4.707-5.734-7.098-13.845-7.107-24.107c-0.007-8.581,2.191-15.893,6.533-21.732
			c4.292-5.77,9.972-10.08,16.884-12.807c6.728-2.654,14.043-4.004,21.739-4.011h0.09c6.223,0,11.972,0.645,17.088,1.916
			c5.339,1.331,9.487,3.061,12.676,5.288c3.477,2.495,5.248,5.244,5.252,8.161c0.002,2.083-0.601,4.491-1.843,7.361
			c-1.177,2.72-2.65,5.134-4.377,7.174c-2.164,2.554-4.421,3.85-6.71,3.852c-1.087,0-2.384-0.351-4.211-1.136
			c-1.271-0.542-2.352-0.98-3.214-1.304c-3.924-1.278-8.012-1.916-12.204-1.916c-7.046,0.007-9.808,1.417-10.83,2.256
			c-1.669,1.369-2.479,2.813-2.478,4.411c0.002,2.309,0.578,4.117,1.759,5.529c1.39,1.668,3.04,2.984,5.045,4.02
			c2.285,1.182,5.733,2.765,10.249,4.705c6.82,2.828,12.482,5.561,16.847,8.128c4.656,2.744,8.734,6.722,12.12,11.823
			c3.464,5.223,5.225,11.895,5.233,19.828c0.007,9.569-2.1,17.574-6.266,23.793c-4.166,6.217-9.61,10.793-16.181,13.599
			c-6.398,2.734-13.383,4.124-20.758,4.132H93.165z"/>
	</g>
	<g transform="matrix(1,0,0,1,391.472,356.586)">
		<path style="fill:#E81A87;" d="M92.518,7.489h-0.093c-7.872,0.008-15.357,1.39-22.25,4.108
			c-7.158,2.826-13.042,7.291-17.49,13.272c-4.527,6.086-6.817,13.677-6.808,22.566c0.01,10.593,2.507,19.001,7.423,24.991
			c4.673,5.695,11.116,10.494,19.151,14.265l8.296,3.557l0.111,0.045c6.359,2.53,10.951,4.789,13.643,6.714
			c1.814,1.299,2.624,2.89,2.627,5.161c0.003,3.698-1.349,4.927-2.528,5.585c-2.532,1.414-5.734,2.132-9.52,2.136h-0.044
			c-3.585,0-6.699-0.442-9.261-1.315c-2.859-0.975-6.108-2.355-9.654-4.101c-4.065-2.179-5.68-2.609-7.085-2.609h-0.007
			c-3.37,0.003-6.053,2.423-7.779,4.244c-2.049,2.165-3.839,4.682-5.316,7.479c-1.663,3.137-2.469,5.89-2.467,8.413
			c0.003,3.788,2.33,7.272,6.916,10.357c4.046,2.908,9.343,5.185,16.189,6.963c6.583,1.711,14.325,2.578,23.011,2.578h0.133
			c7.564-0.007,14.731-1.435,21.305-4.243c6.822-2.915,12.472-7.66,16.792-14.105c4.323-6.454,6.51-14.72,6.501-24.572
			c-0.007-8.211-1.846-15.142-5.466-20.597c-3.503-5.279-7.734-9.401-12.574-12.253c-4.421-2.601-10.159-5.371-17.004-8.209
			c-4.481-1.925-7.896-3.492-10.158-4.663c-1.834-0.947-3.343-2.148-4.617-3.676c-0.964-1.151-1.432-2.667-1.434-4.634
			c-0.001-0.737,0.202-1.883,1.967-3.332c0.708-0.582,3.089-1.933,9.906-1.94h0.04c4.046,0,7.987,0.616,11.714,1.829
			c0.848,0.316,1.911,0.748,3.154,1.277c2.008,0.865,3.476,1.251,4.757,1.251h0.007c2.716-0.003,5.331-1.465,7.772-4.346
			c1.815-2.143,3.361-4.674,4.594-7.522c1.319-3.05,1.959-5.642,1.956-7.917c-0.002-3.391-1.953-6.509-5.847-9.302
			c-3.335-2.327-7.631-4.125-13.138-5.497C104.719,8.148,98.856,7.489,92.518,7.489 M92.518,10.278
			c6.112,0,11.748,0.632,16.75,1.875c5.171,1.289,9.167,2.949,12.186,5.057c3.106,2.229,4.682,4.597,4.685,7.039
			c0.002,1.888-0.564,4.115-1.728,6.807c-1.123,2.596-2.523,4.892-4.161,6.827c-1.888,2.226-3.787,3.357-5.651,3.358
			c-0.872,0-2.034-0.324-3.663-1.027c-1.285-0.548-2.386-0.994-3.271-1.324l-0.056-0.021l-0.057-0.019
			c-4.008-1.304-8.24-1.965-12.577-1.965h-0.043c-7.069,0.007-10.249,1.404-11.673,2.573c-2.012,1.651-2.989,3.448-2.987,5.49
			c0.002,2.61,0.704,4.772,2.081,6.418c1.513,1.816,3.306,3.246,5.476,4.368c2.316,1.199,5.795,2.796,10.372,4.762
			c6.74,2.795,12.344,5.499,16.656,8.037c4.473,2.636,8.399,6.468,11.665,11.391c3.311,4.991,4.994,11.403,5,19.059
			c0.008,9.287-2.02,17.03-6.028,23.016c-4.014,5.988-9.252,10.393-15.571,13.092c-6.226,2.66-13.027,4.013-20.211,4.02h-0.13
			c-8.449,0-15.955-0.837-22.31-2.488c-6.509-1.69-11.502-3.826-15.263-6.528l-0.035-0.025l-0.035-0.024
			c-3.77-2.536-5.682-5.242-5.684-8.046c-0.002-2.057,0.699-4.381,2.143-7.107c1.362-2.574,3.001-4.884,4.876-6.862
			c1.371-1.448,3.46-3.371,5.761-3.373c0.789,0,2.033,0.275,5.767,2.277l0.085,0.044c3.657,1.801,7.018,3.226,9.987,4.238
			c2.852,0.972,6.27,1.465,10.16,1.465h0.047c4.268-0.005,7.928-0.843,10.876-2.49c2.668-1.489,3.963-4.114,3.959-8.025
			c-0.003-3.172-1.243-5.601-3.793-7.427c-2.877-2.056-7.666-4.423-14.202-7.023l-0.075-0.03l-8.253-3.539
			c-7.636-3.589-13.738-8.127-18.138-13.489c-4.496-5.479-6.781-13.292-6.79-23.224c-0.007-8.275,2.097-15.306,6.257-20.9
			c4.133-5.557,9.609-9.71,16.275-12.34c6.567-2.59,13.709-3.906,21.231-3.915H92.518"/>
	</g>
	<g transform="matrix(-53.1308,4.142,4.05341,51.9944,79.573,1.428)">

		<radialGradient id="SVGID_00000085223671743090130860000009314785467306699952_" cx="6.6094" cy="14.6222" r="0.5843" gradientTransform="matrix(-74.5173 5.8093 5.685 72.9234 406.9051 -1100.5371)" gradientUnits="userSpaceOnUse">
		<stop  offset="0" style="stop-color:#D6D6D6"/>
			<stop  offset="0.14" style="stop-color:#D6D6D6"/>
			<stop  offset="0.94" style="stop-color:#E5E5E5"/>
			<stop  offset="1" style="stop-color:#E5E5E5"/>
		</radialGradient>
		<path style="fill:url(#SVGID_00000085223671743090130860000009314785467306699952_);" d="M-2.484,3.346
			c0.456,0.001,0.821,0.37,0.823,0.825c0.002,0.486-0.372,0.805-0.827,0.805c-0.455-0.001-0.816-0.329-0.822-0.807
			c-0.004-0.432,0.333-0.787,0.758-0.82C-2.529,3.347-2.506,3.346-2.484,3.346z"/>
	</g>
	<g transform="matrix(-58.8385,4.58817,4.42303,56.7509,79.767,3.861)">

		<radialGradient id="SVGID_00000073720603139060184530000016739373954334172825_" cx="5.9707" cy="13.343" r="0.5842" gradientTransform="matrix(-79.1638 38.9018 44.2772 99.9738 -120.3662 -1562.1138)" gradientUnits="userSpaceOnUse">
		<stop  offset="0" style="stop-color:#FFFFFF"/>
			<stop  offset="0.14" style="stop-color:#FFFFFF"/>
			<stop  offset="0.94" style="stop-color:#FFFFFF"/>
			<stop  offset="1" style="stop-color:#FFFFFF"/>
		</radialGradient>
		<path style="fill:url(#SVGID_00000073720603139060184530000016739373954334172825_);" d="M-2.243,3.109
			c0.389,0,0.699,0.316,0.703,0.705C-1.536,4.226-1.857,4.5-2.246,4.5C-2.634,4.499-2.94,4.23-2.947,3.812
			c-0.007-0.37,0.284-0.672,0.646-0.701C-2.282,3.11-2.262,3.109-2.243,3.109z"/>
	</g>
	<g transform="matrix(1,0,0,1,58.867,-1.361)">
		<path style="fill:#222326;" d="M152.619,227.657c-3.144,0.205-5.889-2.013-6.101-4.929l-0.77-10.603
			c-0.211-2.917,2.188-5.471,5.331-5.675c3.144-0.206,5.889,2.012,6.101,4.928l0.769,10.604
			C158.161,224.898,155.762,227.452,152.619,227.657"/>
	</g>
	<g transform="matrix(1,0,0,1,103.623,-4.859)">
		<path style="fill:#222326;" d="M144.531,228.109c-3.144,0.205-5.889-2.013-6.101-4.929l-0.77-10.603
			c-0.211-2.917,2.188-5.47,5.331-5.675c3.144-0.206,5.889,2.012,6.101,4.928l0.769,10.604
			C150.074,225.35,147.675,227.904,144.531,228.109"/>
	</g>
</g>
</svg>
